<?xml version="1.0"?>
<svg xmlns="http://www.w3.org/2000/svg" xmlns:xlink="http://www.w3.org/1999/xlink" xmlns:svgjs="http://svgjs.com/svgjs" version="1.1" width="512" height="512" x="0" y="0" viewBox="0 0 16.933333 16.933334" style="enable-background:new 0 0 512 512" xml:space="preserve" class=""><g><g xmlns="http://www.w3.org/2000/svg" id="layer1" transform="translate(0 -280.067)"><path id="path4329" d="m13.500979 287.48274c.140039-.11691.257353-.28526.257353-.53692v-2.11666c0-.43516-.358588-.79377-.79375-.79375h-3.1744839v-.79427c0-.43516-.360133-.79272-.795301-.79272h-3.7031318c-.4351629 0-.7927155.35756-.7927155.79272v.79427h-3.1760346c-.43515233 0-.79375003.35859-.79375003.79375v2.11666c0 .22131.1084765.4185.2495973.54209.1411182.12359.30647223.19178.46818823.2403l3.9651332 1.25212c.3445695.12247.5116195-.40688.1591627-.50437l-3.9705598-1.25366c-.1208696-.0362-.2198476-.0862-.2731082-.13281-.053261-.0467-.069247-.0718-.069247-.14367v-2.11666c0-.15116.1134559-.26459.2645833-.26459h11.6416671c.151138 0 .264583.11343.264583.26459v2.11666c0 .0465-.01119.0836-.0677.13075-.05571.0465-.163545.0997-.290939.15089l-3.9542799 1.2485c-.352456.0975-.185406.62684.159163.50437l3.9780499-1.25652c.151707-.0603.307486-.12416.447516-.24107zm-8.2093137-4.50515h3.7031318c.151173 0 .265618.11239.265618.26355v.79427h-4.2343677v-.79427c0-.15116.1144614-.26355.2656179-.26355zm1.0588492 4.76147c-.1471295-.00053-.2664645.119-.2656152.26613v1.85157c0 .58174.4765914 1.05833 1.0583334 1.05833.5817394 0 1.0588493-.47659 1.0588493-1.05833v-1.85157c.0007937-.14632-.1172263-.26555-.2635489-.26613zm-5.0312162.52555c-.147148.001-.2648664.12262-.262001.26975v5.29115c0 .43517.3601429.79272.7953005.79272h8.7302182c.345064-.008.345064-.52154 0-.52917h-8.7302182c-.1511432 0-.2661338-.1124-.2661338-.26355v-5.29115c.00291-.14915-.1179936-.27122-.2671657-.26975zm11.3822507.27033v.54157c-.8919.0585-1.183497.50709-1.851568.51676-.245975 0-.510698-.0975-.608232-.18758-.2708689-.25007-.6086809.14742-.3725859.37517.1745349.16836.4447009.26311.5927299.29662l-.9131239 2.05517c-.01458.0339-.02162.0706-.02119.10749 0 0-.0037.31878.160194.64647.163838.32769.5063219.67541 1.1616869.67541.655363 0 .998358-.34772 1.162204-.67541.163851-.32769.159679-.64647.159679-.64647.000529-.0369-.0066-.0736-.02119-.10749l-.912606-2.05362c.541028-.0859.858806-.48441 1.724959-.48472.869511.001 1.187143.40074 1.729092.48679l-.912606 2.05362c-.01458.0339-.02172.0706-.02119.10749 0 0-.0041.31878.159679.64647.163845.32769.506841.67541 1.162203.67541.655365 0 .99785-.34772 1.161688-.67541.163898-.32769.160194-.64647.160194-.64647.000529-.0369-.0066-.0736-.02119-.10749l-.913125-2.05517c.148029-.0335.418195-.12826.592731-.29662.236093-.22775-.101717-.62524-.372587-.37518-.09753.0901-.362257.18759-.608232.18759-.66807-.01-.959667-.4583-1.851567-.51676v-.54157c.0016-.14623-.114792-.26609-.263017-.26872-.148228.00053-.264666.12048-.263017.26665zm-6.087483-.2662h1.0583334v1.58802c0 .29773-.2314337.52916-.5291667.52916-.2977356 0-.5291667-.23143-.5291667-.52916zm6.35155 1.85002c-.132323 0-.264067.0882-.264067.26458v3.7083h-1.071769c-.357214.0243-.332904.53791.01241.52917h1.320334v.002h1.324467c.345297.009.36961-.50489.01241-.52916h-1.071771v-3.70835c0-.17503-.129714-.26267-.260966-.26407v-.003zm-2.116151.39067.65009 1.46451h-1.299663zm4.230233.002.649573 1.46451h-1.299662zm-4.97644 1.99213h1.49293s-.09326.52916-.746207.52916c-.652946 0-.746723-.52916-.746723-.52916zm4.229717.002h1.49293s-.09378.52917-.746723.52917c-.652949 0-.746207-.52917-.746207-.52917z" font-variant-ligatures="normal" font-variant-position="normal" font-variant-caps="normal" font-variant-numeric="normal" font-variant-alternates="normal" font-feature-settings="normal" text-indent="0" text-align="start" text-decoration-line="none" text-decoration-style="solid" text-decoration-color="rgb(0,0,0)" text-transform="none" text-orientation="mixed" white-space="normal" shape-padding="0" isolation="auto" mix-blend-mode="normal" solid-color="rgb(0,0,0)" solid-opacity="1" vector-effect="none" fill="#0a1931" data-original="#000000" class=""/></g></g></svg>
