<svg width="1440" height="1024" viewBox="0 0 1440 1024" fill="none" xmlns="http://www.w3.org/2000/svg">
<path d="M1 1023.5H1440V0L1182.5 286.5L1124 562L868 675L774 889L1 1023.5Z" fill="#1A428A"/>
<path d="M1 1023.5L0.914289 1023.01L1 1024V1023.5ZM1440 1023.5V1024H1440.5V1023.5H1440ZM1440 0H1440.5V-1.3043L1439.63 -0.334231L1440 0ZM1182.5 286.5L1182.13 286.166L1182.04 286.265L1182.01 286.396L1182.5 286.5ZM1124 562L1124.2 562.457L1124.44 562.354L1124.49 562.104L1124 562ZM868 675L867.798 674.543L867.62 674.621L867.542 674.799L868 675ZM774 889L774.086 889.493L774.35 889.447L774.458 889.201L774 889ZM1 1024H1440V1023H1V1024ZM1440.5 1023.5V0H1439.5V1023.5H1440.5ZM1439.63 -0.334231L1182.13 286.166L1182.87 286.834L1440.37 0.334231L1439.63 -0.334231ZM1182.01 286.396L1123.51 561.896L1124.49 562.104L1182.99 286.604L1182.01 286.396ZM1123.8 561.543L867.798 674.543L868.202 675.457L1124.2 562.457L1123.8 561.543ZM867.542 674.799L773.542 888.799L774.458 889.201L868.458 675.201L867.542 674.799ZM773.914 888.507L0.914289 1023.01L1.08571 1023.99L774.086 889.493L773.914 888.507Z" fill="#1A428A"/>
</svg>
